<?xml version="1.0" encoding="UTF-8"?>
<!-- Generator: visioncortex VTracer 0.6.5 -->
<svg version="1.1" xmlns="http://www.w3.org/2000/svg" width="1572" height="216">
<path d="M0 0 C110.49 0 110.49 0 136.55 24.39 C152.56 40.64 157.8 63.4 158.31 85.62 C157.95 110.32 151.92 133.37 135 152 C134.45 152.64 133.9 153.29 133.33 153.95 C128.16 159.63 121.59 163.22 115 167 C114.32 167.41 113.64 167.83 112.95 168.25 C83.34 185.03 13.74 176 0 176 C0 117.92 0 59.84 0 0 Z M38 29 C38 67.94 38 106.88 38 147 C89.55 147 89.55 147 104.31 133.19 C116.85 119.83 120.6 101.6 120.24 83.73 C119.26 68.54 115.82 54.04 104.94 42.67 C86.01 26.34 61.88 29 38 29 Z " fill="#49A8FF" transform="translate(972,20)"/>
<path d="M0 0 C0.33 0.33 0.66 0.66 1 1 C3.61 1.44 6.19 1.81 8.81 2.12 C9.58 2.22 10.34 2.31 11.13 2.41 C16.79 3.04 22.03 2.88 27.68 2 C30 2 30 2 31.82 3.35 C33 5 33 5 33 7 C34.24 7.37 35.47 7.74 36.75 8.12 C40.79 9.44 44.38 11.19 48.12 13.19 C54.25 16.37 54.25 16.37 58 16.12 C61 16 61 16 63.44 17.81 C65 20 65 20 65 23 C65.67 23.22 66.34 23.43 67.02 23.66 C70.97 25.44 74.18 27.9 77.62 30.5 C78.95 31.49 80.28 32.48 81.6 33.47 C82.18 33.91 82.76 34.34 83.36 34.79 C86.19 36.88 88.09 38.02 91.56 38.81 C92.7 39.2 93.83 39.6 95 40 C96.12 42.5 96.12 42.5 97 45 C98.66 45.68 100.33 46.34 102 47 C103.24 47.75 104.46 48.52 105.67 49.31 C106.34 49.75 107 50.18 107.69 50.63 C109.05 51.54 110.41 52.45 111.77 53.37 C116.7 56.57 121.2 58.1 127 59 C127.06 59.32 127.06 59.32 127.38 60.94 C127.48 61.28 127.48 61.28 128 63 C129.9 63.91 129.9 63.91 132.38 64.5 C136.26 65.5 139.9 66.7 143.62 68.19 C147.09 69.49 149.8 70.21 153.5 70.06 C157 70 157 70 159.06 71.06 C160.66 74.36 160.04 76.58 159 80 C158.15 80.36 157.3 80.72 156.43 81.09 C151.29 83.95 148.55 88.31 145.12 93 C144.42 93.95 143.71 94.9 142.99 95.88 C141.6 97.75 140.22 99.62 138.84 101.5 C137.33 103.55 135.81 105.57 134.25 107.59 C130.66 112.3 128.05 116.12 127 122 C126.61 122.03 126.61 122.03 124.62 122.19 C123.76 122.46 122.89 122.72 122 123 C121.31 124.66 120.65 126.33 120 128 C118.45 130.65 116.75 133.19 115.06 135.75 C114.58 136.49 114.1 137.23 113.61 137.99 C111.07 141.88 108.5 145.76 105.9 149.61 C105.4 150.36 104.91 151.11 104.39 151.87 C103.45 153.29 102.49 154.71 101.53 156.11 C98.49 160.7 97.2 164.65 96 170 C94 172 94 172 91.84 172.65 C87.51 174.71 84.81 178.11 81.62 181.62 C81.31 181.97 81.31 181.97 79.7 183.71 C77.79 185.79 75.89 187.89 74 190 C73.35 190.72 72.7 191.43 72.03 192.17 C71.4 192.87 70.78 193.56 70.14 194.28 C69.58 194.9 69.02 195.53 68.44 196.17 C66.29 198.91 65.23 201.75 64 205 C62 207 62 207 59.78 207.05 C59.31 207.03 59.31 207.03 56.94 206.88 C51.35 206.77 46.34 207.55 40.94 208.81 C40.2 208.98 39.46 209.14 38.7 209.31 C34.95 210.23 32.5 211.02 30 214 C27.04 214.44 25.64 214.46 23.19 212.69 C22 211 22 211 22 208 C21.16 207.75 20.32 207.51 19.46 207.25 C14.92 205.61 10.9 203.27 6.74 200.83 C2.07 198.22 -1.69 197.55 -7 197 C-9 195.06 -9 195.06 -10 193 C-10 192.34 -10 191.68 -10 191 C-10.82 190.75 -11.63 190.51 -12.47 190.25 C-17.39 188.51 -21.98 186.17 -26.63 183.83 C-31.17 181.63 -34.97 180.43 -40 180 C-40.33 178.68 -40.66 177.36 -41 176 C-42.28 175.73 -43.56 175.46 -44.88 175.19 C-49.27 174.23 -53.48 172.93 -57.74 171.49 C-60.23 170.95 -61.62 171.13 -64 172 C-64.33 172.33 -64.66 172.66 -65 173 C-67.89 173.3 -69.42 173.42 -71.81 171.69 C-73 170 -73 170 -73 167 C-76.44 166.94 -79.87 166.91 -83.31 166.88 C-83.8 166.87 -83.8 166.87 -86.27 166.82 C-87.21 166.82 -88.15 166.81 -89.11 166.8 C-89.55 166.8 -89.55 166.8 -91.73 166.77 C-94 167 -94 167 -97 169 C-102.56 168.44 -102.56 168.44 -104 167 C-107.64 166.75 -111.29 166.81 -114.94 166.81 C-115.97 166.8 -116.99 166.79 -118.05 166.78 C-119.03 166.77 -120.02 166.77 -121.03 166.77 C-121.93 166.77 -122.84 166.76 -123.77 166.76 C-126 167 -126 167 -128 169 C-129.97 169.05 -129.97 169.05 -132.5 168.88 C-138.06 168.76 -143.15 169.64 -148.56 170.81 C-149.36 170.98 -150.16 171.14 -150.98 171.31 C-156.75 172.63 -156.75 172.63 -159 176 C-162.62 176.19 -162.62 176.19 -166 176 C-166.23 175.2 -166.45 174.39 -166.69 173.56 C-167.12 172.72 -167.55 171.87 -168 171 C-169.66 170.62 -171.33 170.3 -173 170 C-174.4 169.55 -175.79 169.08 -177.18 168.59 C-177.56 168.46 -177.56 168.46 -179.5 167.78 C-181.08 167.22 -182.65 166.66 -184.23 166.08 C-188.06 164.76 -190.84 164 -194.95 164 C-195.95 164 -196.96 164 -198 164 C-200 161 -200 161 -199.81 157.94 C-199 155 -199 155 -196 153 C-194.08 153.08 -194.08 153.08 -191.93 153.48 C-186.71 154.2 -182.29 153.41 -177.19 152.25 C-176.36 152.08 -175.52 151.91 -174.67 151.73 C-168.46 150.38 -168.46 150.38 -165.93 148.3 C-163.23 146.48 -161.32 147.29 -158.25 147.81 C-154.09 148.16 -150.28 146.93 -146.31 145.81 C-145.48 145.6 -144.66 145.39 -143.8 145.18 C-138.95 143.87 -135.86 142.33 -132 139 C-129.19 139.25 -129.19 139.25 -127 140 C-126.67 140.99 -126.34 141.98 -126 143 C-122.38 143.65 -120.5 143.9 -117 143 C-110.43 138.14 -105.77 133.09 -104 125 C-103.22 124.94 -102.43 124.88 -101.62 124.81 C-100.76 124.54 -99.89 124.28 -99 124 C-98.28 122.36 -97.62 120.68 -97 119 C-96.05 117.32 -95.07 115.65 -94.06 114.01 C-93.77 113.54 -93.77 113.54 -92.3 111.14 C-91.69 110.15 -91.07 109.15 -90.44 108.12 C-89.81 107.1 -89.19 106.08 -88.54 105.02 C-85.75 100.46 -82.95 95.92 -80.11 91.4 C-79.69 90.73 -79.28 90.06 -78.85 89.37 C-77.77 87.63 -76.67 85.89 -75.57 84.16 C-73.85 80.71 -73.47 77.8 -73 74 C-72.34 73.34 -71.68 72.68 -71 72 C-69.68 72 -68.36 72 -67 72 C-66.77 71.33 -66.54 70.65 -66.31 69.96 C-64.64 66.18 -62.42 62.99 -60.06 59.61 C-59.07 58.16 -58.09 56.72 -57.1 55.27 C-55.55 53.01 -54 50.75 -52.44 48.5 C-50.93 46.32 -49.43 44.12 -47.94 41.92 C-47.47 41.26 -47.01 40.6 -46.53 39.92 C-43.65 35.65 -42.29 32 -41.56 26.89 C-41 25 -41 25 -38 23 C-37.11 22.75 -36.23 22.5 -35.32 22.24 C-30.9 20.59 -27.63 18 -23.94 15.12 C-23.59 14.86 -23.59 14.86 -21.83 13.52 C-20.49 12.49 -19.15 11.45 -17.81 10.41 C-16.25 9.2 -14.68 8 -13.11 6.82 C-10.49 4.56 -9.5 2.08 -8 -1 C-4.36 -2.21 -3.36 -1.59 0 0 Z M-9.8 11.38 C-10.47 11.89 -11.13 12.39 -11.81 12.91 C-12.49 13.46 -13.17 14 -13.88 14.56 C-14.58 15.11 -15.28 15.66 -16.01 16.22 C-27.38 25.12 -27.38 25.12 -30 28 C-30 28.66 -30 29.32 -30 30 C-28.43 31.36 -28.43 31.36 -26.24 32.9 C-25.84 33.18 -25.84 33.18 -23.85 34.6 C-23.01 35.19 -22.17 35.77 -21.31 36.38 C-19.68 37.53 -18.05 38.68 -16.43 39.84 C-15.65 40.38 -14.88 40.92 -14.08 41.48 C-12 43 -12 43 -9.23 45.41 C-7 47 -7 47 -4.49 47.54 C-0.97 46.78 0.39 45.06 2.81 42.44 C8.82 36.12 15.28 30.54 22 25 C20.3 19.9 15.24 18.04 10.81 15.31 C10.34 15.01 10.34 15.01 7.94 13.47 C7.48 13.19 7.48 13.19 5.14 11.74 C4.3 11.21 3.46 10.69 2.59 10.15 C-2.06 8.09 -5.79 8.25 -9.8 11.38 Z M11 9 C17.3 14.32 22.68 18.32 31 19 C31.33 19.33 31.66 19.66 32 20 C34.53 20.07 37.03 20.09 39.56 20.06 C40.27 20.06 40.98 20.05 41.72 20.05 C43.48 20.04 45.24 20.02 47 20 C40.12 14.42 31.85 11.15 23 12 C23 11.34 23 10.68 23 10 C20.48 8.74 18.69 8.9 15.88 8.94 C14.96 8.95 14.05 8.96 13.12 8.96 C12.77 8.97 12.77 8.97 11 9 Z M35 27 C35.6 27.59 36.19 28.18 36.8 28.79 C39.02 30.98 41.23 33.18 43.44 35.38 C44.86 36.8 46.29 38.21 47.71 39.63 C48.16 40.07 48.16 40.07 50.43 42.33 C51.26 43.15 52.08 43.98 52.94 44.82 C55 47 55 47 57 50 C63.98 51.82 68.91 50.1 75.5 47.56 C76.42 47.22 77.34 46.89 78.28 46.54 C80.53 45.71 82.77 44.86 85 44 C80.94 39.78 76.43 36.62 71.62 33.31 C70.79 32.72 69.95 32.13 69.09 31.51 C64.72 28.5 61.43 26.37 56 26 C55.67 25.67 55.34 25.34 55 25 C52.2 24.87 49.43 24.81 46.62 24.81 C45.84 24.8 45.06 24.79 44.26 24.78 C40.32 24.77 38.34 24.77 35 27 Z M21.26 32.07 C20.92 32.4 20.92 32.4 19.21 34.04 C18.87 34.38 18.87 34.38 17.12 36.12 C15.75 37.46 14.38 38.8 13.01 40.13 C12.34 40.79 11.68 41.44 10.99 42.11 C8.56 44.42 5.99 46.52 3.34 48.57 C1.66 50.36 1.23 51.56 1 54 C2.51 56.18 3.98 58 5.75 59.94 C6.77 61.09 7.78 62.24 8.8 63.4 C9.32 63.99 9.85 64.58 10.4 65.19 C12.98 68.11 15.49 71.08 18 74.06 C18.46 74.6 18.91 75.13 19.38 75.69 C21.68 78.39 23.91 81.13 26 84 C29.89 83.45 31.63 81.72 34.31 78.94 C35.1 78.13 35.89 77.31 36.7 76.48 C39.32 73.66 41.86 70.78 44.36 67.86 C45.98 66.02 47.68 64.32 49.44 62.62 C52 60 52 60 52 58 C52.66 58 53.32 58 54 58 C53.48 54.13 52.69 52.2 49.87 49.51 C49.23 48.89 48.59 48.27 47.93 47.63 C47.25 46.99 46.57 46.35 45.88 45.69 C44.5 44.36 43.13 43.03 41.77 41.69 C41.11 41.06 40.46 40.42 39.78 39.77 C36.66 36.67 33.81 33.37 31 30 C30 29 30 29 27.67 28.75 C24.44 29.05 23.55 29.82 21.26 32.07 Z M-36 34 C-37.57 35.99 -38.91 37.92 -40.25 40.06 C-41.13 41.43 -42.01 42.79 -42.89 44.16 C-43.37 44.92 -43.86 45.68 -44.36 46.46 C-46.19 49.3 -48.07 52.1 -49.96 54.91 C-51.33 56.96 -52.69 59.01 -54.06 61.06 C-54.4 61.56 -54.4 61.56 -56.08 64.05 C-56.71 65 -57.33 65.94 -57.97 66.91 C-58.53 67.75 -59.09 68.58 -59.67 69.45 C-61.16 72.31 -61.63 74.8 -62 78 C-61.48 78.35 -60.95 78.7 -60.41 79.05 C-58.02 80.64 -55.64 82.23 -53.25 83.81 C-52.42 84.36 -51.6 84.91 -50.75 85.47 C-50.35 85.74 -50.35 85.74 -48.33 87.08 C-47.96 87.33 -47.96 87.33 -46.11 88.56 C-44 90 -44 90 -42.04 91.68 C-39.43 93.37 -38.06 93.56 -35 93 C-33.23 91.23 -33.23 91.23 -31.62 88.75 C-31.01 87.84 -30.41 86.93 -29.78 85.99 C-29.15 85 -28.52 84.02 -27.88 83 C-26.55 80.98 -25.23 78.96 -23.9 76.94 C-23.58 76.44 -23.58 76.44 -21.92 73.9 C-20.17 71.26 -18.37 68.7 -16.5 66.15 C-15.98 65.43 -15.46 64.72 -14.92 63.97 C-13.95 62.64 -12.97 61.32 -11.97 60.01 C-10.05 57.33 -8.91 55.73 -9.31 52.38 C-11.58 49.18 -14.41 47.2 -17.62 45.06 C-18.9 44.19 -20.16 43.32 -21.43 42.45 C-22.05 42.03 -22.66 41.61 -23.29 41.19 C-26.11 39.23 -28.78 37.1 -31.45 34.96 C-33 34 -33 34 -36 34 Z M75 52.5 C74.13 52.83 73.26 53.17 72.36 53.51 C70.24 54.33 68.12 55.16 66 56 C66 60.31 68.6 62.13 71.44 65.06 C72.54 66.23 73.64 67.39 74.74 68.56 C75.29 69.14 75.84 69.72 76.4 70.31 C78.68 72.72 80.91 75.17 83.12 77.62 C83.83 78.4 84.53 79.18 85.26 79.98 C87 82 87 82 89 85 C94.21 84.57 96.49 83.13 100.19 79.5 C104.93 74.96 109.81 70.86 114.98 66.81 C115.65 66.21 116.31 65.62 117 65 C117 64.34 117 63.68 117 63 C115.01 61.6 115.01 61.6 112.26 60 C111.27 59.42 110.29 58.84 109.28 58.25 C108.76 57.95 108.76 57.95 106.12 56.44 C105.09 55.83 104.06 55.23 103 54.61 C92.29 48.38 86.56 47.9 75 52.5 Z M-5 58 C-6.66 60.1 -6.66 60.1 -8.63 63.05 C-9 63.58 -9 63.58 -10.83 66.3 C-11.59 67.45 -12.36 68.6 -13.12 69.75 C-13.86 70.84 -14.59 71.93 -15.35 73.06 C-16.83 75.26 -18.31 77.47 -19.78 79.69 C-21.27 81.92 -22.78 84.11 -24.34 86.29 C-25.07 87.34 -25.8 88.38 -26.55 89.45 C-27.22 90.38 -27.88 91.3 -28.56 92.25 C-30.32 95.6 -30.68 97.27 -30 101 C-28.23 103.29 -26.61 105.09 -24.53 107.05 C-24.25 107.33 -24.25 107.33 -22.85 108.71 C-21.08 110.45 -19.29 112.16 -17.5 113.88 C-16.29 115.05 -15.09 116.23 -13.89 117.41 C-10.94 120.29 -7.98 123.15 -5 126 C-1.29 123.12 1.43 120.38 4.19 116.56 C4.96 115.51 5.73 114.46 6.52 113.38 C6.72 113.1 6.72 113.1 7.74 111.71 C9.91 108.77 12.14 105.89 14.38 103 C15.92 101 17.46 99 19 97 C19.3 96.67 19.3 96.67 20.79 95 C22.52 92.14 22.47 90.29 22 87 C20.35 84.61 20.35 84.61 18.06 82.31 C14.67 78.77 11.45 75.2 8.38 71.38 C5.63 68 2.88 64.63 0.06 61.31 C-0.48 60.67 -1.03 60.03 -1.59 59.36 C-3 58 -3 58 -5 58 Z M56.18 62.46 C55.56 63.09 54.95 63.72 54.31 64.38 C53.69 65 53.07 65.63 52.43 66.27 C51 68 51 68 51 70 C50.34 70 49.68 70 49 70 C47.59 71.4 47.59 71.4 45.94 73.38 C43.86 75.84 41.77 78.24 39.54 80.58 C38.72 81.44 37.9 82.3 37.06 83.19 C36.29 83.99 35.52 84.78 34.72 85.61 C32.66 88.48 32.6 89.54 33 93 C34.33 95.3 34.33 95.3 36.18 97.66 C36.86 98.53 37.54 99.4 38.23 100.3 C38.96 101.21 39.69 102.12 40.44 103.06 C41.91 104.94 43.38 106.82 44.85 108.7 C45.57 109.61 46.28 110.52 47.02 111.45 C48.71 113.62 50.35 115.81 51.96 118.05 C52.16 118.33 52.16 118.33 53.2 119.76 C54.24 121.21 55.27 122.66 56.3 124.11 C56.86 124.74 57.42 125.36 58 126 C58.99 126 59.98 126 61 126 C62.92 123.73 64.65 121.48 66.38 119.06 C67.44 117.6 68.5 116.13 69.56 114.67 C70.12 113.9 70.67 113.14 71.25 112.35 C73.02 109.97 74.87 107.66 76.75 105.36 C77.36 104.61 77.96 103.86 78.58 103.09 C79.76 101.63 80.95 100.19 82.16 98.76 C86.09 93.84 86.09 93.84 85.67 89.87 C83.77 86.6 81.56 83.93 78.94 81.25 C77.95 80.2 76.96 79.16 75.96 78.11 C75.47 77.59 74.97 77.07 74.46 76.54 C72.27 74.23 70.13 71.87 68 69.5 C67.3 68.73 66.6 67.95 65.88 67.16 C64 65 64 65 62.44 62.72 C61.96 62.15 61.49 61.58 61 61 C58 61 58 61 56.18 62.46 Z M119 70 C116.52 71.85 116.52 71.85 114.25 74.06 C109.76 78.34 105.06 82.18 100.15 85.96 C97.95 88.05 97.33 89.03 97 92 C102.53 97.13 108.12 102.19 113.88 107.06 C114.31 107.43 114.31 107.43 116.49 109.29 C119.12 111.08 120.91 111.48 124 112 C132.35 100.68 140.69 89.35 149 78 C147.03 74.06 141.32 73.21 137.38 71.75 C136.39 71.36 135.4 70.97 134.39 70.57 C128.62 68.43 124.83 67.19 119 70 Z M-69.99 85.33 C-70.61 86.41 -71.24 87.49 -71.89 88.6 C-72.24 89.18 -72.58 89.76 -72.94 90.36 C-74.06 92.25 -75.16 94.16 -76.25 96.06 C-77.01 97.36 -77.77 98.65 -78.53 99.94 C-80.02 102.47 -81.5 105.01 -82.98 107.55 C-84.67 110.43 -86.38 113.27 -88.15 116.09 C-88.58 116.78 -89.01 117.48 -89.45 118.19 C-90.54 119.93 -91.63 121.67 -92.73 123.41 C-94 126 -94 126 -93 129 C-89.78 130.83 -86.27 132.01 -82.81 133.31 C-81.87 133.7 -80.92 134.08 -79.94 134.48 C-76.04 135.97 -72.97 137.06 -68.78 136.81 C-64.39 133.95 -61.75 129.99 -58.75 125.75 C-58.1 124.85 -57.45 123.96 -56.78 123.03 C-55.46 121.22 -54.15 119.4 -52.85 117.58 C-51.19 115.26 -49.5 112.96 -47.8 110.67 C-46.89 109.43 -45.97 108.18 -45.06 106.94 C-44.64 106.37 -44.23 105.81 -43.79 105.23 C-41 101.35 -41 101.35 -41 98 C-44.29 95.09 -48.04 92.76 -51.69 90.31 C-52.69 89.61 -53.7 88.91 -54.74 88.19 C-55.72 87.52 -56.69 86.86 -57.7 86.18 C-58.59 85.57 -59.49 84.96 -60.41 84.33 C-64.56 82.2 -66.81 81.6 -69.99 85.33 Z M27 95 C23.63 99.31 20.26 103.62 16.92 107.95 C14.43 111.17 11.91 114.37 9.36 117.55 C8.26 118.95 7.16 120.35 6.06 121.75 C5.54 122.39 5.01 123.03 4.47 123.7 C2.12 126.73 1.02 128.24 0.93 132.16 C2.16 135.43 3.56 137.2 6 139.69 C13.24 147.34 19.79 155.5 26 164 C28.97 163.67 29.95 163.05 32.04 160.85 C32.75 159.93 33.46 159.01 34.19 158.06 C37.24 154.19 40.35 150.45 43.69 146.81 C49.22 140.68 49.22 140.68 51.62 137.75 C52.11 137.17 52.6 136.58 53.1 135.98 C54.47 132.97 53.92 131.14 53 128 C51.21 125.24 51.21 125.24 48.81 122.31 C47.91 121.19 47.01 120.07 46.11 118.94 C45.62 118.33 45.13 117.71 44.62 117.07 C40.83 112.22 37.26 107.18 33.65 102.18 C33.07 101.4 32.5 100.61 31.91 99.8 C31.39 99.09 30.88 98.38 30.35 97.65 C29 96 29 96 27 95 Z M90 96 C88.33 97.74 88.33 97.74 86.52 100.17 C85.86 101.06 85.19 101.95 84.5 102.86 C83.8 103.81 83.1 104.77 82.38 105.75 C80.93 107.68 79.49 109.62 78.05 111.55 C77.36 112.49 76.66 113.43 75.95 114.4 C74.31 116.58 72.65 118.73 70.95 120.86 C70.14 121.87 69.33 122.89 68.5 123.94 C68.15 124.36 68.15 124.36 66.41 126.53 C64.63 129.65 64.47 131.46 65 135 C66.5 137.05 66.5 137.05 68.56 138.88 C71.34 141.45 73.97 144 76.44 146.88 C80.55 151.65 84.77 156.32 89 161 C92.29 159.63 93.76 158.32 95.59 155.28 C96.06 154.52 96.53 153.76 97.01 152.98 C97.5 152.16 97.99 151.34 98.5 150.5 C101.72 145.24 104.94 140.02 108.45 134.95 C109.01 134.15 109.56 133.35 110.13 132.52 C111.19 131 112.26 129.48 113.34 127.96 C115.48 124.87 116.88 122.53 117.69 118.82 C116.71 114.83 114.32 113.07 111.19 110.69 C110.9 110.45 110.9 110.45 109.42 109.27 C108.21 108.31 107 107.36 105.78 106.41 C104.09 105.07 102.44 103.69 100.79 102.29 C93.38 96 93.38 96 90 96 Z M-36 104 C-42.23 111.3 -47.91 118.9 -53.48 126.72 C-54.01 127.46 -54.54 128.2 -55.08 128.96 C-55.33 129.31 -55.33 129.31 -56.59 131.09 C-58 133 -58 133 -60.45 135.79 C-62 138 -62 138 -61.88 139.95 C-60.67 142.77 -59.16 143.49 -56.52 145.02 C-55.6 145.54 -54.69 146.07 -53.74 146.62 C-52.77 147.16 -51.81 147.69 -50.81 148.25 C-49.87 148.8 -48.92 149.36 -47.94 149.93 C-47.02 150.45 -46.1 150.98 -45.14 151.52 C-44.3 151.99 -43.46 152.47 -42.59 152.96 C-39.54 154.19 -37.27 154.27 -34 154 C-32.02 152.79 -32.02 152.79 -30.25 151.06 C-29.58 150.43 -28.9 149.79 -28.21 149.14 C-27.48 148.43 -26.75 147.73 -26 147 C-24.3 145.45 -22.59 143.91 -20.88 142.38 C-20.04 141.62 -19.2 140.87 -18.34 140.09 C-15.61 137.66 -12.83 135.31 -10 133 C-10.52 129.13 -11.31 127.2 -14.13 124.51 C-14.77 123.89 -15.41 123.27 -16.07 122.63 C-16.75 121.99 -17.43 121.35 -18.12 120.69 C-19.5 119.36 -20.87 118.03 -22.24 116.69 C-22.9 116.06 -23.55 115.42 -24.23 114.77 C-26.9 112.1 -29.34 109.26 -31.7 106.32 C-33 105 -33 105 -36 104 Z M-102 136 C-104.2 138.54 -106.12 141.22 -108 144 C-106.19 144.62 -106.19 144.62 -104 145 C-103.01 144.34 -102.02 143.68 -101 143 C-95.66 143.33 -95.66 143.33 -93.57 145.45 C-91.16 147.83 -88.75 148.38 -85.5 149.06 C-80.8 148.95 -77.48 145.92 -74 143 C-77.62 139.85 -81.62 138.43 -86.06 136.81 C-86.78 136.54 -87.5 136.27 -88.24 135.99 C-93.57 134.01 -96.93 133.17 -102 136 Z M-8.64 138.29 C-8.91 138.58 -8.91 138.58 -10.25 140.06 C-13.95 143.99 -17.91 147.48 -22 151 C-23.5 152.31 -25 153.62 -26.5 154.94 C-27.67 155.96 -28.83 156.98 -30 158 C-29.76 161.28 -28.89 162.1 -26.38 164.33 C-25.26 165.17 -24.13 166 -23 166.81 C-21.81 167.69 -20.62 168.57 -19.43 169.45 C-19.14 169.67 -19.14 169.67 -17.66 170.76 C-14.73 172.95 -11.96 175.34 -9.2 177.72 C-5.91 179.63 -3.84 179.99 0 180 C3.82 178.69 7.35 176.91 10.94 175.06 C11.91 174.58 12.88 174.1 13.88 173.6 C16.26 172.42 18.63 171.22 21 170 C21 165.24 20.2 164.57 17.19 161.06 C16.37 160.1 15.56 159.14 14.72 158.15 C14.28 157.64 13.84 157.13 13.39 156.61 C11.45 154.36 9.54 152.1 7.63 149.83 C6.69 148.72 5.75 147.61 4.81 146.5 C2.75 144.09 0.78 141.69 -1.07 139.12 C-1.71 138.42 -2.35 137.72 -3 137 C-7 137 -7 137 -8.64 138.29 Z M56.05 139.8 C55.34 140.63 54.62 141.46 53.88 142.31 C53.08 143.22 52.29 144.14 51.47 145.07 C48.32 148.81 45.21 152.58 42.16 156.39 C39.62 159.46 36.92 162.32 34.12 165.15 C33 167 33 167 33.17 169.34 C34.2 172.64 35.63 174.08 38.11 176.47 C38.95 177.29 39.79 178.11 40.65 178.95 C41.53 179.79 42.41 180.63 43.31 181.5 C45.04 183.17 46.77 184.85 48.49 186.53 C49.26 187.27 50.03 188.01 50.82 188.77 C53.06 191.06 55.04 193.47 57 196 C61.54 195.53 63.22 194.15 66.12 190.69 C66.89 189.79 67.66 188.9 68.45 187.97 C69.29 186.99 70.13 186.01 71 185 C73.4 182.35 75.85 179.73 78.28 177.11 C84.68 170.17 84.68 170.17 85.62 166.69 C84.76 162.98 82.73 161.42 79.98 158.87 C78.09 157.08 76.39 155.23 74.69 153.25 C74.12 152.6 73.55 151.94 72.96 151.27 C71.46 149.53 69.95 147.79 68.44 146.05 C67.54 145.03 66.65 144.02 65.75 143 C64.92 142.05 64.09 141.1 63.23 140.12 C60.36 137.39 59.03 137.04 56.05 139.8 Z M-76 151 C-71.71 151 -67.42 151 -63 151 C-62.67 152.32 -62.34 153.64 -62 155 C-58.94 157.6 -55.48 158.98 -51.47 159.03 C-49.28 158.78 -47.15 158.46 -45 158 C-48.41 155.32 -52.03 153.03 -55.75 150.81 C-56.04 150.63 -56.04 150.63 -57.52 149.7 C-64.64 145.49 -69.29 145.63 -76 151 Z M-144.25 150.94 C-144.88 151.13 -144.88 151.13 -148.08 152.09 C-148.56 152.24 -148.56 152.24 -151 153 C-144.43 156.44 -137.47 158.92 -129.98 157.79 C-126.25 156.3 -124.92 153.41 -123 150 C-125.74 149.2 -127.09 149.02 -130 149.5 C-133 150 -133 150 -134.73 149.41 C-138.2 148.78 -140.91 149.92 -144.25 150.94 Z M-116 152 C-117.62 154 -117.62 154 -119 156 C-116.36 155.34 -113.72 154.68 -111 154 C-114 152 -114 152 -116 152 Z M-176.81 158 C-177.79 158.19 -178.76 158.37 -179.77 158.56 C-180.14 158.63 -180.14 158.63 -182 159 C-180.25 162.5 -176.32 163.05 -172.78 164.3 C-162.38 167.74 -153.27 166.06 -143 163 C-144 161 -144 161 -146.66 159.89 C-153.33 157.77 -158.13 156.55 -165 158 C-165.33 157.67 -165.66 157.34 -166 157 C-169.73 156.79 -173.15 157.29 -176.81 158 Z M-110 160 C-107.12 160.12 -107.12 160.12 -104 160 C-103.34 159.34 -102.68 158.68 -102 158 C-105.77 158 -106.91 158.24 -110 160 Z M-76 158 C-75.34 158.33 -75.34 158.33 -72 160 C-72 159.34 -72 158.68 -72 158 C-73.32 158 -74.64 158 -76 158 Z M-43 163 C-42.34 163.33 -42.34 163.33 -39 165 C-39.33 164.34 -39.66 163.68 -40 163 C-40.99 163 -41.98 163 -43 163 Z M-30 168 C-29 172 -29 172 -26.56 173.81 C-25.72 174.2 -24.87 174.6 -24 175 C-23.34 174.67 -22.68 174.34 -22 174 C-24.64 172.02 -27.28 170.04 -30 168 Z M-22 175 C-21.67 175.66 -21.34 176.32 -21 177 C-20.34 176.67 -19.68 176.34 -19 176 C-19.99 175.67 -20.98 175.34 -22 175 Z M12.06 179.5 C11.19 179.93 10.31 180.36 9.41 180.8 C7.27 181.86 5.13 182.92 3 184 C3 184.99 3 185.98 3 187 C5.13 188.74 7.22 190.28 9.5 191.81 C10.8 192.7 12.09 193.59 13.39 194.48 C14.02 194.91 14.64 195.34 15.29 195.79 C17.38 197.27 19.3 198.91 21.25 200.56 C25.68 203.81 29.56 204.44 35 204 C41.07 202.98 47.04 201.51 53 200 C48.23 194.31 43.23 188.89 38.06 183.56 C37.29 182.74 36.52 181.91 35.72 181.06 C30.05 175.25 30.05 175.25 25.55 174.18 C20.69 175.3 16.51 177.25 12.06 179.5 Z " fill="#48A6FF" transform="translate(1412,2)"/>
<path d="M0 0 C14.85 0 29.7 0 45 0 C49.5 10.12 49.5 10.12 51.05 14.44 C51.4 15.42 51.75 16.4 52.12 17.41 C52.49 18.45 52.86 19.49 53.25 20.56 C53.65 21.68 54.05 22.8 54.47 23.95 C55.56 27 56.66 30.05 57.75 33.09 C59.87 39 62.01 44.91 64.14 50.81 C64.38 51.48 64.63 52.16 64.88 52.85 C69.65 66.08 74.5 79.28 79.38 92.47 C86.35 111.32 93.28 130.18 100.1 149.09 C100.9 151.31 101.71 153.53 102.51 155.75 C103.61 158.79 104.71 161.83 105.8 164.87 C106.13 165.77 106.45 166.68 106.79 167.61 C107.09 168.42 107.38 169.24 107.68 170.09 C107.94 170.8 108.19 171.51 108.46 172.24 C109 174 109 174 109 176 C96.46 176 83.92 176 71 176 C68.86 169.91 66.72 163.83 64.59 157.74 C63.86 155.67 63.14 153.59 62.41 151.52 C61.36 148.55 60.32 145.58 59.28 142.6 C58.95 141.67 58.63 140.74 58.29 139.78 C57.99 138.92 57.69 138.06 57.38 137.17 C57.11 136.41 56.84 135.66 56.57 134.87 C56 133 56 133 56 131 C34.22 131.33 12.44 131.66 -10 132 C-14.95 146.52 -19.9 161.04 -25 176 C-37.87 176 -50.74 176 -64 176 C-57.74 158.13 -51.42 140.3 -44.85 122.55 C-38.96 106.63 -33.13 90.69 -27.32 74.75 C-26.07 71.33 -24.82 67.91 -23.57 64.49 C-23.08 63.14 -22.59 61.79 -22.09 60.44 C-21.85 59.77 -21.61 59.11 -21.36 58.42 C-20.87 57.08 -20.38 55.75 -19.9 54.41 C-13.28 36.27 -6.64 18.14 0 0 Z M22 30 C21.65 31.2 21.3 32.4 20.94 33.64 C17.24 46.21 13.16 58.62 8.88 71 C7.96 73.67 7.04 76.33 6.12 79 C5.56 80.63 5 82.27 4.43 83.9 C2.24 90.25 0.13 96.62 -2 103 C14.17 103 30.34 103 47 103 C44.75 92.87 44.75 92.87 43.08 87.96 C42.71 86.87 42.34 85.78 41.95 84.65 C41.56 83.49 41.16 82.34 40.75 81.15 C40.34 79.94 39.93 78.73 39.51 77.48 C38.64 74.93 37.77 72.38 36.9 69.83 C35.78 66.59 34.68 63.34 33.57 60.1 C32.51 56.97 31.45 53.84 30.38 50.71 C30.18 50.14 30.18 50.14 29.19 47.21 C27.21 41.44 25.18 35.7 23 30 C22.67 30 22.34 30 22 30 Z " fill="#49A8FF" transform="translate(838,20)"/>
<path d="M0 0 C2.69 2.44 2.69 2.44 5 5 C5.52 5.5 6.04 6.01 6.57 6.52 C10.87 10.94 13.68 15.78 16.44 21.25 C16.79 21.95 17.15 22.65 17.51 23.36 C19.22 26.88 20 29.02 20 33 C16.19 34.13 12.38 35.25 8.56 36.38 C7.49 36.69 6.42 37.01 5.32 37.34 C-0.75 39.12 -6.8 40.71 -13 42 C-13.35 41.21 -13.7 40.43 -14.07 39.62 C-17.21 32.94 -20.19 27.63 -26 23 C-26.57 22.54 -27.14 22.08 -27.73 21.61 C-39.07 13.58 -53.6 12.6 -67 14 C-71.58 14.88 -75.71 16.18 -80 18 C-80.83 18.35 -81.66 18.7 -82.51 19.06 C-92.38 23.89 -98.53 32.7 -102.32 42.83 C-105.48 52.94 -106.53 62.82 -106.44 73.38 C-106.43 74.64 -106.42 75.91 -106.41 77.21 C-106.13 93.61 -102.62 109.91 -90.98 122.25 C-79.38 132.5 -65.08 134.87 -50.05 134.18 C-41.75 133.45 -34.53 130.28 -27.9 125.37 C-26 124 -26 124 -23.88 123.07 C-21.47 121.7 -21.1 120.52 -20 118 C-18.25 115.23 -16.45 112.49 -14.66 109.75 C-13.13 107.22 -12.01 104.78 -11 102 C-6.25 102.55 -2.12 103.51 2.34 105.21 C3.48 105.65 4.63 106.09 5.81 106.54 C6.4 106.77 6.4 106.77 9.38 107.94 C10.58 108.39 11.78 108.85 13.01 109.32 C21.87 112.75 21.87 112.75 23 115 C21.96 117.57 20.87 119.97 19.62 122.44 C19.26 123.16 18.9 123.88 18.52 124.62 C9.29 142.28 -6.14 154.91 -25.06 160.88 C-51.54 168.63 -80.8 166.76 -105.56 154.38 C-122.97 144.29 -135.71 128.31 -141.21 108.88 C-144.14 97.83 -145.21 87.23 -145.24 75.82 C-145.25 73.6 -145.28 71.38 -145.31 69.15 C-145.49 45.55 -139.39 22.9 -122.66 5.66 C-112.54 -4.45 -101.8 -10.19 -88 -14 C-86.85 -14.32 -85.69 -14.64 -84.5 -14.98 C-56.16 -21.51 -23.21 -18.45 0 0 Z " fill="#49A8FF" transform="translate(737,34)"/>
<path d="M0 0 C11.65 11.47 15.27 23.83 15.44 40.06 C15.44 41.41 15.44 42.76 15.44 44.11 C15.45 45.53 15.47 46.95 15.48 48.37 C15.52 52.08 15.54 55.78 15.55 59.49 C15.58 65.43 15.62 71.37 15.67 77.32 C15.69 79.37 15.69 81.43 15.7 83.49 C15.82 98.78 15.82 98.78 19.31 103.94 C23.85 106.79 28.73 106 34 106 C34 112.6 34 119.2 34 126 C20.7 129.29 5.77 132.17 -6.8 124.97 C-13.36 120.15 -15.38 112.57 -17 105 C-17.53 105.77 -18.06 106.54 -18.61 107.34 C-19.32 108.34 -20.02 109.34 -20.75 110.38 C-21.45 111.37 -22.14 112.37 -22.86 113.4 C-24.87 115.84 -26.09 116.91 -29 118 C-29 118.66 -29 119.32 -29 120 C-42.04 129.59 -56.62 131.74 -72.34 129.53 C-82.89 127.25 -91.96 122.12 -98 113 C-103.89 101.07 -104.83 87.49 -102.32 74.45 C-98.85 64.27 -91.73 55.98 -82.31 50.81 C-71.95 45.98 -60.42 44.83 -49.12 44.9 C-48.32 44.9 -47.51 44.91 -46.67 44.91 C-44.11 44.91 -41.56 44.92 -39 44.94 C-37.25 44.94 -35.51 44.95 -33.76 44.95 C-29.51 44.96 -25.25 44.98 -21 45 C-21.13 42.78 -21.27 40.56 -21.41 38.35 C-21.49 37.11 -21.56 35.88 -21.64 34.61 C-22.12 29.79 -23.37 25.53 -25 21 C-25.13 20.5 -25.13 20.5 -25.81 18 C-27 16 -27 16 -29.62 14.75 C-37.27 13.05 -43.47 12.45 -51 15 C-55.48 17.92 -56.55 21.27 -58.13 26.2 C-58.31 26.74 -58.31 26.74 -59.2 29.48 C-59.46 30.31 -59.73 31.14 -60 32 C-64.1 31.86 -68.21 31.71 -72.31 31.56 C-72.89 31.54 -72.89 31.54 -75.79 31.44 C-82.89 31.18 -89.93 30.73 -97 30 C-96.22 19.34 -91.59 9.11 -83.62 1.83 C-61.67 -15.18 -22.46 -17.68 0 0 Z M-62 72 C-66.21 78.01 -66.59 83.82 -66 91 C-65.08 95.23 -63.76 98.18 -60.81 101.38 C-54.57 104.98 -49.43 105.56 -42.52 103.88 C-34.82 101.19 -28.94 96.11 -25 89 C-21.34 80.94 -20.55 73.76 -21 65 C-53.33 64.19 -53.33 64.19 -62 72 Z " fill="#D7DDE4" transform="translate(245,69)"/>
<path d="M0 0 C0.5 0 0.5 0 3.02 0.01 C14.76 0.19 26.38 1.53 36.81 7.31 C37.62 7.73 38.43 8.15 39.26 8.59 C53.05 16.22 61.54 28.3 66.04 43.29 C71.49 64.51 71.03 89.57 60.81 109.31 C58.96 112.44 56.99 115.41 54.81 118.31 C54.21 119.13 53.6 119.94 52.98 120.79 C41.83 133.81 25.33 139.34 8.81 141.31 C-12.12 142.64 -31.78 139.24 -48.19 125.31 C-60.96 113.68 -67.24 97.26 -68.39 80.31 C-69.41 56.76 -66.27 36.62 -50.43 18.28 C-37.27 4.36 -18.61 -0.11 0 0 Z M-21.47 34.13 C-29.55 44.38 -30.52 57.75 -30.44 70.25 C-30.45 71.37 -30.45 72.48 -30.46 73.63 C-30.43 85.54 -28.96 98.67 -20.85 108 C-13.38 115 -7.53 116.75 2.63 116.56 C10.17 115.98 16.5 112.69 21.81 107.31 C29.89 96.21 31.33 83.17 31.19 69.81 C31.2 68.69 31.21 67.57 31.22 66.42 C31.18 55.29 29.34 45.04 23.81 35.31 C23.15 35.31 22.49 35.31 21.81 35.31 C21.7 35.01 21.7 35.01 21.12 33.48 C19.45 30.7 17.85 29.99 14.94 28.62 C14.07 28.21 13.21 27.79 12.32 27.36 C0.73 22.51 -12.45 25.52 -21.47 34.13 Z " fill="#D7DDE4" transform="translate(501.1875,57.6875)"/>
<path d="M0 0 C6.75 6.37 9.93 13.88 12.74 22.64 C12.74 23.3 12.74 23.96 12.74 24.64 C2 26.54 -8.35 27.85 -19.26 27.64 C-19.93 26.35 -20.6 25.06 -21.26 23.77 C-21.63 23.05 -22 22.33 -22.39 21.59 C-23.26 19.64 -23.26 19.64 -23.26 17.64 C-34.58 11.78 -48.13 10.61 -60.49 13.94 C-63.26 15.04 -65.2 16.52 -67.26 18.64 C-68.46 22.25 -68.59 24.85 -68.26 28.64 C-65.16 33.89 -60.84 35.91 -55.1 37.54 C-53.98 37.79 -52.86 38.04 -51.71 38.29 C-50.46 38.57 -49.21 38.85 -47.93 39.14 C-47.28 39.28 -46.63 39.42 -45.96 39.57 C-42.57 40.32 -39.19 41.1 -35.81 41.88 C-35.15 42.03 -34.49 42.18 -33.81 42.34 C1.49 50.52 1.49 50.52 11.05 65.52 C16.59 75.48 17.55 86.97 14.55 98.02 C10.7 108.88 3.64 116.46 -6.69 121.54 C-28.35 131.4 -55.71 131.66 -78.26 124.64 C-90.26 120 -99.63 112.74 -105.14 100.89 C-106.46 97.82 -107.49 94.88 -108.26 91.64 C-101.27 89.96 -94.33 88.9 -87.2 88.02 C-86.67 87.95 -86.67 87.95 -84 87.61 C-81.42 87.28 -78.84 86.96 -76.26 86.64 C-75.91 87.39 -75.56 88.14 -75.2 88.91 C-70.26 98.76 -70.26 98.76 -65.21 101 C-53.29 104.89 -39.32 105.25 -27.26 101.64 C-22.92 99.39 -20.01 97.28 -18.26 92.64 C-17.89 87.75 -18.44 84.62 -21.64 80.83 C-30.07 74.99 -41.22 73.35 -51.01 71.2 C-86.71 63.13 -86.71 63.13 -99.15 46.68 C-103.94 37.91 -103.69 25.65 -101.42 16.12 C-97.17 4.99 -90.21 -1.69 -79.65 -6.75 C-56.5 -17.01 -20.23 -16.59 0 0 Z " fill="#D7DDE4" transform="translate(395.26171875,70.359375)"/>
<path d="M0 0 C8.84 7.48 15.8 17.26 18.13 28.81 C18.15 30.48 18.15 32.15 18.13 33.81 C13.81 34.1 9.48 34.38 5.16 34.67 C3.69 34.76 2.22 34.86 0.75 34.96 C-1.37 35.1 -3.48 35.24 -5.6 35.38 C-6.87 35.46 -8.15 35.54 -9.46 35.63 C-12.27 35.78 -15.05 35.85 -17.87 35.81 C-18.1 35.02 -18.33 34.22 -18.57 33.4 C-22.63 20.22 -22.63 20.22 -29.06 16.57 C-36.35 13.26 -42.97 12.58 -50.62 15 C-58.68 19.5 -61.85 24.1 -64.87 32.81 C-69.94 51.48 -70.1 75.42 -60.87 92.81 C-57.05 98.15 -53.12 100.73 -46.87 102.81 C-38.74 103.76 -32.67 102.39 -25.87 97.81 C-20.67 93.02 -18.55 85.52 -16.87 78.81 C-4.99 79.14 6.89 79.47 19.13 79.81 C17.65 94.6 11.91 106.33 0.44 116.12 C-15.5 127.96 -35.53 131 -54.89 128.31 C-72.07 125.26 -85.16 117.58 -95.53 103.57 C-107.8 84.95 -108.91 57.82 -104.85 36.37 C-101 20.17 -92.67 5.65 -78.64 -3.62 C-55.13 -16.94 -21.74 -16.56 0 0 Z " fill="#D7DDE4" transform="translate(105.87109375,70.1875)"/>
</svg>
